fd_4_states
version=1
nRows=31
nColumns=17
inDegrees=yes

# SIMM Motion File Header:
name fd_4_states
datacolumns 17
datarows 31
otherdata 1
range 0.789623 0.813959
endheader
time	/jointset/r_shoulder/r_shoulder_elev/value	/jointset/r_shoulder/r_shoulder_elev/speed	/jointset/r_elbow/r_elbow_flex/value	/jointset/r_elbow/r_elbow_flex/speed	/forceset/TRIlong/activation	/forceset/TRIlong/fiber_length	/forceset/TRIlat/activation	/forceset/TRIlat/fiber_length	/forceset/TRImed/activation	/forceset/TRImed/fiber_length	/forceset/BIClong/activation	/forceset/BIClong/fiber_length	/forceset/BICshort/activation	/forceset/BICshort/fiber_length	/forceset/BRA/activation	/forceset/BRA/fiber_length
      0.789623	      0.052308	     -0.147284	    117.629326	    200.483045	      0.027679	      0.178727	      0.341713	      0.112024	      0.338620	      0.107098	      0.999499	      0.071787	      0.630813	      0.071662	      0.033495	      0.057330
      0.789921	      0.052264	     -0.148367	    117.688878	    200.479385	      0.027656	      0.178746	      0.341826	      0.112044	      0.338738	      0.107118	      0.999507	      0.071739	      0.632156	      0.071609	      0.033440	      0.057305
      0.790027	      0.052249	     -0.148769	    117.710155	    200.477915	      0.027648	      0.178753	      0.341878	      0.112051	      0.338793	      0.107125	      0.999509	      0.071722	      0.632741	      0.071590	      0.033420	      0.057297
      0.790133	      0.052233	     -0.149170	    117.731432	    200.476359	      0.027637	      0.178760	      0.342041	      0.112058	      0.338960	      0.107133	      0.999512	      0.071705	      0.634260	      0.071572	      0.033400	      0.057288
      0.790239	      0.052217	     -0.149564	    117.752709	    200.474716	      0.027626	      0.178767	      0.342211	      0.112065	      0.339135	      0.107140	      0.999514	      0.071688	      0.635842	      0.071553	      0.033381	      0.057279
      0.790770	      0.052137	     -0.151370	    117.859090	    200.465264	      0.027571	      0.178802	      0.343033	      0.112100	      0.339981	      0.107175	      0.999527	      0.071604	      0.643545	      0.071458	      0.033284	      0.057236
      0.793423	      0.051728	     -0.155126	    118.390904	    200.402299	      0.027304	      0.178977	      0.346547	      0.112274	      0.343594	      0.107348	      0.999586	      0.071182	      0.677451	      0.070970	      0.032808	      0.057018
      0.794453	      0.051569	     -0.155417	    118.597379	    200.381446	      0.027203	      0.179046	      0.347679	      0.112341	      0.344758	      0.107415	      0.999607	      0.071019	      0.688829	      0.070779	      0.032628	      0.056933
      0.795480	      0.051409	     -0.154184	    118.803069	    200.370053	      0.027104	      0.179112	      0.348697	      0.112408	      0.345803	      0.107483	      0.999626	      0.070856	      0.699317	      0.070589	      0.032452	      0.056849
      0.796506	      0.051251	     -0.155212	    119.008753	    200.365260	      0.027006	      0.179185	      0.349617	      0.112476	      0.346747	      0.107550	      0.999645	      0.070694	      0.709037	      0.070399	      0.032277	      0.056765
      0.797261	      0.051135	     -0.152913	    119.160030	    200.372495	      0.026935	      0.179231	      0.350236	      0.112525	      0.347383	      0.107599	      0.999658	      0.070575	      0.715736	      0.070261	      0.032151	      0.056703
      0.798016	      0.051020	     -0.152911	    119.311314	    200.382253	      0.026865	      0.179281	      0.350811	      0.112575	      0.347972	      0.107649	      0.999671	      0.070456	      0.722082	      0.070123	      0.032026	      0.056641
      0.799288	      0.050825	     -0.152053	    119.566150	    200.411211	      0.026748	      0.179363	      0.351688	      0.112659	      0.348871	      0.107733	      0.999691	      0.070256	      0.732032	      0.069893	      0.031818	      0.056537
      0.800014	      0.050715	     -0.152456	    119.711751	    200.431875	      0.026682	      0.179413	      0.352139	      0.112707	      0.349334	      0.107781	      0.999702	      0.070142	      0.737315	      0.069763	      0.031701	      0.056478
      0.800463	      0.050646	     -0.152326	    119.801694	    200.446909	      0.026641	      0.179442	      0.352275	      0.112737	      0.349500	      0.107811	      0.999709	      0.070072	      0.739661	      0.069682	      0.031630	      0.056441
      0.801056	      0.050556	     -0.152541	    119.920511	    200.467814	      0.026589	      0.179481	      0.352416	      0.112776	      0.349683	      0.107850	      0.999717	      0.069979	      0.742463	      0.069578	      0.031536	      0.056393
      0.802765	      0.050294	     -0.154778	    120.263160	    200.531790	      0.026438	      0.179594	      0.352779	      0.112890	      0.350154	      0.107964	      0.999740	      0.069711	      0.749953	      0.069280	      0.031269	      0.056253
      0.803987	      0.050103	     -0.157764	    120.508308	    200.573013	      0.026333	      0.179675	      0.353004	      0.112973	      0.350447	      0.108046	      0.999756	      0.069521	      0.754820	      0.069070	      0.031083	      0.056153
      0.804882	      0.049961	     -0.159398	    120.687708	    200.597676	      0.026257	      0.179732	      0.353153	      0.113033	      0.350639	      0.108106	      0.999767	      0.069381	      0.758144	      0.068918	      0.030948	      0.056080
      0.805776	      0.049817	     -0.162395	    120.867127	    200.612359	      0.026182	      0.179793	      0.353289	      0.113093	      0.350816	      0.108166	      0.999777	      0.069242	      0.761282	      0.068767	      0.030815	      0.056007
      0.806670	      0.049671	     -0.163559	    121.046554	    200.618850	      0.026108	      0.179850	      0.353414	      0.113154	      0.350978	      0.108226	      0.999787	      0.069103	      0.764246	      0.068618	      0.030684	      0.055935
      0.807565	      0.049524	     -0.166741	    121.225981	    200.610064	      0.026035	      0.179912	      0.353528	      0.113214	      0.351126	      0.108287	      0.999796	      0.068965	      0.767045	      0.068469	      0.030554	      0.055862
      0.808362	      0.049391	     -0.166850	    121.385933	    200.593588	      0.025970	      0.179961	      0.353622	      0.113268	      0.351248	      0.108340	      0.999804	      0.068841	      0.769411	      0.068337	      0.030440	      0.055797
      0.809159	      0.049257	     -0.168837	    121.545867	    200.562044	      0.025907	      0.180015	      0.353709	      0.113322	      0.351360	      0.108394	      0.999812	      0.068718	      0.771660	      0.068206	      0.030327	      0.055732
      0.809644	      0.049175	     -0.169214	    121.643055	    200.537342	      0.025868	      0.180046	      0.353759	      0.113355	      0.351425	      0.108427	      0.999816	      0.068643	      0.772973	      0.068126	      0.030259	      0.055692
      0.810001	      0.049115	     -0.169616	    121.714538	    200.515685	      0.025840	      0.180070	      0.353793	      0.113379	      0.351469	      0.108451	      0.999819	      0.068588	      0.773922	      0.068068	      0.030209	      0.055663
      0.810097	      0.049098	     -0.169708	    121.733874	    200.509336	      0.025832	      0.180076	      0.353780	      0.113385	      0.351455	      0.108457	      0.999820	      0.068573	      0.775057	      0.068052	      0.030196	      0.055656
      0.810229	      0.049076	     -0.169792	    121.760413	    200.500304	      0.025822	      0.180085	      0.353755	      0.113394	      0.351428	      0.108466	      0.999821	      0.068553	      0.776839	      0.068031	      0.030177	      0.055645
      0.810891	      0.048963	     -0.169689	    121.893089	    200.451505	      0.025770	      0.180128	      0.353631	      0.113439	      0.351295	      0.108511	      0.999827	      0.068451	      0.785501	      0.067921	      0.030086	      0.055591
      0.813387	      0.048542	     -0.169429	    122.393163	    200.285249	      0.025580	      0.180294	      0.353184	      0.113609	      0.350812	      0.108680	      0.999847	      0.068067	      0.814778	      0.067496	      0.029749	      0.055388
      0.813959	      0.048446	     -0.168975	    122.507741	    200.265111	      0.025537	      0.180329	      0.353085	      0.113648	      0.350706	      0.108719	      0.999852	      0.067980	      0.820814	      0.067397	      0.029673	      0.055342
